<svg id="visual" viewBox="0 0 1920 1080" width="1920" height="1080" xmlns="http://www.w3.org/2000/svg" xmlns:xlink="http://www.w3.org/1999/xlink" version="1.1"><rect x="0" y="0" width="1920" height="1080" fill="#ededed"></rect><path d="M0 601L13.3 636.2C26.7 671.3 53.3 741.7 80 743C106.7 744.3 133.3 676.7 160 674.7C186.7 672.7 213.3 736.3 240 774.5C266.7 812.7 293.3 825.3 320 832C346.7 838.7 373.3 839.3 400 831.8C426.7 824.3 453.3 808.7 480 776.2C506.7 743.7 533.3 694.3 560 665.7C586.7 637 613.3 629 640 669.5C666.7 710 693.3 799 720 830.2C746.7 861.3 773.3 834.7 800 824.5C826.7 814.3 853.3 820.7 880 812C906.7 803.3 933.3 779.7 960 743.7C986.7 707.7 1013.3 659.3 1040 665.2C1066.7 671 1093.3 731 1120 741.7C1146.7 752.3 1173.3 713.7 1200 727.8C1226.7 742 1253.3 809 1280 842.5C1306.7 876 1333.3 876 1360 866.3C1386.7 856.7 1413.3 837.3 1440 794C1466.7 750.7 1493.3 683.3 1520 699.7C1546.7 716 1573.3 816 1600 814.5C1626.7 813 1653.3 710 1680 667C1706.7 624 1733.3 641 1760 672C1786.7 703 1813.3 748 1840 771.2C1866.7 794.3 1893.3 795.7 1906.7 796.3L1920 797L1920 1081L1906.7 1081C1893.3 1081 1866.7 1081 1840 1081C1813.3 1081 1786.7 1081 1760 1081C1733.3 1081 1706.7 1081 1680 1081C1653.3 1081 1626.7 1081 1600 1081C1573.3 1081 1546.7 1081 1520 1081C1493.3 1081 1466.7 1081 1440 1081C1413.3 1081 1386.7 1081 1360 1081C1333.3 1081 1306.7 1081 1280 1081C1253.3 1081 1226.7 1081 1200 1081C1173.3 1081 1146.7 1081 1120 1081C1093.3 1081 1066.7 1081 1040 1081C1013.3 1081 986.7 1081 960 1081C933.3 1081 906.7 1081 880 1081C853.3 1081 826.7 1081 800 1081C773.3 1081 746.7 1081 720 1081C693.3 1081 666.7 1081 640 1081C613.3 1081 586.7 1081 560 1081C533.3 1081 506.7 1081 480 1081C453.3 1081 426.7 1081 400 1081C373.3 1081 346.7 1081 320 1081C293.3 1081 266.7 1081 240 1081C213.3 1081 186.7 1081 160 1081C133.3 1081 106.7 1081 80 1081C53.3 1081 26.7 1081 13.3 1081L0 1081Z" fill="#fe2858" stroke-linecap="round" stroke-linejoin="miter"></path></svg>